<?xml version="1.0" encoding="UTF-8"?>
<svg xmlns="http://www.w3.org/2000/svg" xmlns:xlink="http://www.w3.org/1999/xlink"
     width="1000" height="1000" viewBox="-500.0 -500.0 1000 1000">
<defs>
</defs>
<path d="M0,100 L-160,180" stroke="black" stroke-width="6" />
<path d="M0,100 L160,180" stroke="black" stroke-width="6" />
<circle cx="0" cy="100" r="12" fill="white" />
<circle cx="0" cy="100" r="10" fill="orange" />
<path d="M-160,180 L-240,260" stroke="black" stroke-width="6" />
<path d="M-160,180 L-80,260" stroke="black" stroke-width="6" />
<circle cx="-160" cy="180" r="12" fill="white" />
<circle cx="-160" cy="180" r="10" fill="orange" />
<path d="M-240,260 L-280,340" stroke="black" stroke-width="6" />
<path d="M-240,260 L-200,340" stroke="black" stroke-width="6" />
<circle cx="-240" cy="260" r="12" fill="white" />
<circle cx="-240" cy="260" r="10" fill="orange" />
<path d="M-280,340 L-300,420" stroke="black" stroke-width="6" />
<path d="M-280,340 L-260,420" stroke="black" stroke-width="6" />
<circle cx="-280" cy="340" r="12" fill="white" />
<circle cx="-280" cy="340" r="10" fill="orange" />
<circle cx="-300" cy="420" r="12" fill="white" />
<circle cx="-300" cy="420" r="10" fill="orange" />
<circle cx="-260" cy="420" r="12" fill="white" />
<circle cx="-260" cy="420" r="10" fill="orange" />
<path d="M-200,340 L-220,420" stroke="black" stroke-width="6" />
<path d="M-200,340 L-180,420" stroke="black" stroke-width="6" />
<circle cx="-200" cy="340" r="12" fill="white" />
<circle cx="-200" cy="340" r="10" fill="orange" />
<circle cx="-220" cy="420" r="12" fill="white" />
<circle cx="-220" cy="420" r="10" fill="orange" />
<circle cx="-180" cy="420" r="12" fill="white" />
<circle cx="-180" cy="420" r="10" fill="orange" />
<path d="M-80,260 L-120,340" stroke="black" stroke-width="6" />
<path d="M-80,260 L-40,340" stroke="black" stroke-width="6" />
<circle cx="-80" cy="260" r="12" fill="white" />
<circle cx="-80" cy="260" r="10" fill="orange" />
<path d="M-120,340 L-140,420" stroke="black" stroke-width="6" />
<path d="M-120,340 L-100,420" stroke="black" stroke-width="6" />
<circle cx="-120" cy="340" r="12" fill="white" />
<circle cx="-120" cy="340" r="10" fill="orange" />
<circle cx="-140" cy="420" r="12" fill="white" />
<circle cx="-140" cy="420" r="10" fill="orange" />
<circle cx="-100" cy="420" r="12" fill="white" />
<circle cx="-100" cy="420" r="10" fill="orange" />
<path d="M-40,340 L-60,420" stroke="black" stroke-width="6" />
<path d="M-40,340 L-20,420" stroke="black" stroke-width="6" />
<circle cx="-40" cy="340" r="12" fill="white" />
<circle cx="-40" cy="340" r="10" fill="orange" />
<circle cx="-60" cy="420" r="12" fill="white" />
<circle cx="-60" cy="420" r="10" fill="orange" />
<circle cx="-20" cy="420" r="12" fill="white" />
<circle cx="-20" cy="420" r="10" fill="orange" />
<path d="M160,180 L80,260" stroke="black" stroke-width="6" />
<path d="M160,180 L240,260" stroke="black" stroke-width="6" />
<circle cx="160" cy="180" r="12" fill="white" />
<circle cx="160" cy="180" r="10" fill="orange" />
<path d="M80,260 L40,340" stroke="black" stroke-width="6" />
<path d="M80,260 L120,340" stroke="black" stroke-width="6" />
<circle cx="80" cy="260" r="12" fill="white" />
<circle cx="80" cy="260" r="10" fill="orange" />
<path d="M40,340 L20,420" stroke="black" stroke-width="6" />
<path d="M40,340 L60,420" stroke="black" stroke-width="6" />
<circle cx="40" cy="340" r="12" fill="white" />
<circle cx="40" cy="340" r="10" fill="orange" />
<circle cx="20" cy="420" r="12" fill="white" />
<circle cx="20" cy="420" r="10" fill="orange" />
<circle cx="60" cy="420" r="12" fill="white" />
<circle cx="60" cy="420" r="10" fill="orange" />
<path d="M120,340 L100,420" stroke="black" stroke-width="6" />
<path d="M120,340 L140,420" stroke="black" stroke-width="6" />
<circle cx="120" cy="340" r="12" fill="white" />
<circle cx="120" cy="340" r="10" fill="orange" />
<circle cx="100" cy="420" r="12" fill="white" />
<circle cx="100" cy="420" r="10" fill="orange" />
<circle cx="140" cy="420" r="12" fill="white" />
<circle cx="140" cy="420" r="10" fill="orange" />
<path d="M240,260 L200,340" stroke="black" stroke-width="6" />
<path d="M240,260 L280,340" stroke="black" stroke-width="6" />
<circle cx="240" cy="260" r="12" fill="white" />
<circle cx="240" cy="260" r="10" fill="orange" />
<path d="M200,340 L180,420" stroke="black" stroke-width="6" />
<path d="M200,340 L220,420" stroke="black" stroke-width="6" />
<circle cx="200" cy="340" r="12" fill="white" />
<circle cx="200" cy="340" r="10" fill="orange" />
<circle cx="180" cy="420" r="12" fill="white" />
<circle cx="180" cy="420" r="10" fill="orange" />
<circle cx="220" cy="420" r="12" fill="white" />
<circle cx="220" cy="420" r="10" fill="orange" />
<path d="M280,340 L260,420" stroke="black" stroke-width="6" />
<path d="M280,340 L300,420" stroke="black" stroke-width="6" />
<circle cx="280" cy="340" r="12" fill="white" />
<circle cx="280" cy="340" r="10" fill="orange" />
<circle cx="260" cy="420" r="12" fill="white" />
<circle cx="260" cy="420" r="10" fill="orange" />
<circle cx="300" cy="420" r="12" fill="white" />
<circle cx="300" cy="420" r="10" fill="orange" />
</svg>