<?xml version="1.0" encoding="utf-8" standalone="no"?>
<!DOCTYPE svg PUBLIC "-//W3C//DTD SVG 1.1//EN"
  "http://www.w3.org/Graphics/SVG/1.1/DTD/svg11.dtd">
<svg xmlns:xlink="http://www.w3.org/1999/xlink" width="371.52pt" height="280.512pt" viewBox="0 0 371.52 280.512" xmlns="http://www.w3.org/2000/svg" version="1.1">
 <metadata>
  <rdf:RDF xmlns:dc="http://purl.org/dc/elements/1.1/" xmlns:cc="http://creativecommons.org/ns#" xmlns:rdf="http://www.w3.org/1999/02/22-rdf-syntax-ns#">
   <cc:Work>
    <dc:type rdf:resource="http://purl.org/dc/dcmitype/StillImage"/>
    <dc:date>2024-06-26T22:55:27.001604</dc:date>
    <dc:format>image/svg+xml</dc:format>
    <dc:creator>
     <cc:Agent>
      <dc:title>Matplotlib v3.9.0, https://matplotlib.org/</dc:title>
     </cc:Agent>
    </dc:creator>
   </cc:Work>
  </rdf:RDF>
 </metadata>
 <defs>
  <style type="text/css">*{stroke-linejoin: round; stroke-linecap: butt}</style>
 </defs>
 <g id="figure_1">
  <g id="patch_1">
   <path d="M 0 280.512 
L 371.52 280.512 
L 371.52 0 
L 0 0 
z
" style="fill: #ffffff"/>
  </g>
  <g id="axes_1">
   <g id="patch_2">
    <path d="M 7.2 273.312 
L 364.32 273.312 
L 364.32 7.2 
L 7.2 7.2 
z
" style="fill: #ffffff"/>
   </g>
   <g id="matplotlib.axis_1"/>
   <g id="matplotlib.axis_2"/>
   <g id="line2d_1">
    <path d="M 35.80423 281.512 
L 37.647525 261.496195 
L 39.886891 240.238274 
L 41.379802 227.767483 
L 42.872713 216.566315 
L 44.365624 206.559455 
L 45.858535 197.674167 
L 47.351446 189.840258 
L 48.844356 182.99004 
L 50.337267 177.058296 
L 51.830178 171.982242 
L 53.323089 167.701485 
L 54.816 164.157988 
L 56.308911 161.296034 
L 57.801822 159.062177 
L 59.294733 157.405213 
L 60.787644 156.276134 
L 62.280554 155.628085 
L 63.773465 155.416332 
L 65.266376 155.59821 
L 66.759287 156.13309 
L 68.252198 156.982332 
L 69.745109 158.109245 
L 71.23802 159.479043 
L 73.477386 161.917635 
L 75.716752 164.7256 
L 78.702574 168.8819 
L 83.181307 175.602272 
L 89.899406 185.697849 
L 93.631683 190.85206 
L 96.617505 194.581308 
L 99.603327 197.885869 
L 101.842693 200.054823 
L 104.082059 201.941192 
L 106.321426 203.534541 
L 108.560792 204.828864 
L 110.800158 205.822267 
L 113.039525 206.51666 
L 115.278891 206.917453 
L 117.518257 207.033254 
L 119.757624 206.875576 
L 121.99699 206.458541 
L 124.236356 205.798599 
L 126.475723 204.914248 
L 128.715089 203.825756 
L 131.700911 202.094707 
L 134.686733 200.094545 
L 138.41901 197.304184 
L 143.644198 193.065911 
L 152.601663 185.756706 
L 156.333941 183.001543 
L 159.319762 181.024892 
L 162.305584 179.301562 
L 165.291406 177.873765 
L 167.530772 177.019307 
L 169.770139 176.365494 
L 172.009505 175.923909 
L 174.248871 175.704134 
L 176.488238 175.713669 
L 178.727604 175.957865 
L 180.96697 176.439877 
L 183.206337 177.160614 
L 185.445703 178.118715 
L 187.685069 179.31053 
L 189.924436 180.730116 
L 192.163802 182.369246 
L 195.149624 184.877808 
L 198.135446 187.726748 
L 201.121267 190.878218 
L 204.853545 195.174752 
L 209.332277 200.720289 
L 224.261386 219.619631 
L 227.247208 222.937693 
L 230.23303 225.922586 
L 232.472396 227.895594 
L 234.711762 229.60469 
L 236.951129 231.017988 
L 239.190495 232.104553 
L 240.683406 232.632693 
L 242.176317 232.993971 
L 243.669228 233.180318 
L 245.162139 233.184059 
L 246.65505 232.997958 
L 248.14796 232.615267 
L 249.640871 232.029771 
L 251.133782 231.235836 
L 252.626693 230.22846 
L 254.119604 229.00332 
L 255.612515 227.556828 
L 257.105426 225.886179 
L 259.344792 222.955852 
L 261.584158 219.514142 
L 263.823525 215.563177 
L 266.062891 211.110458 
L 268.302257 206.169307 
L 270.541624 200.759315 
L 273.527446 192.863222 
L 276.513267 184.263846 
L 280.245545 172.691805 
L 284.724277 157.96353 
L 293.681743 128.254257 
L 296.667564 119.197014 
L 298.906931 113.003611 
L 301.146297 107.495696 
L 302.639208 104.28768 
L 304.132119 101.513113 
L 305.62503 99.228696 
L 307.117941 97.494138 
L 307.864396 96.852559 
L 308.610851 96.372239 
L 309.357307 96.061522 
L 310.103762 95.928956 
L 310.850218 95.983292 
L 311.596673 96.233489 
L 312.343129 96.688715 
L 313.089584 97.35835 
L 313.83604 98.251989 
L 314.582495 99.379443 
L 315.32895 100.750744 
L 316.821861 104.266113 
L 318.314772 108.882815 
L 319.807683 114.689223 
L 321.300594 121.777449 
L 322.793505 130.243416 
L 324.286416 140.186931 
L 325.779327 151.711767 
L 327.272238 164.925736 
L 328.765149 179.940762 
L 330.258059 196.87296 
L 331.75097 215.842706 
L 333.243881 236.974717 
L 334.736792 260.398117 
L 335.962693 281.512 
L 335.962693 281.512 
" clip-path="url(#pe5d87f5946)" style="fill: none; stroke: #000000; stroke-width: 1.5; stroke-linecap: square"/>
   </g>
   <g id="line2d_2">
    <defs>
     <path id="m07e3a75005" d="M 0 5 
C 1.326016 5 2.597899 4.473168 3.535534 3.535534 
C 4.473168 2.597899 5 1.326016 5 0 
C 5 -1.326016 4.473168 -2.597899 3.535534 -3.535534 
C 2.597899 -4.473168 1.326016 -5 0 -5 
C -1.326016 -5 -2.597899 -4.473168 -3.535534 -3.535534 
C -4.473168 -2.597899 -5 -1.326016 -5 0 
C -5 1.326016 -4.473168 2.597899 -3.535534 3.535534 
C -2.597899 4.473168 -1.326016 5 0 5 
z
" style="stroke: #ffa500"/>
    </defs>
    <g clip-path="url(#pe5d87f5946)">
     <use xlink:href="#m07e3a75005" x="42.912" y="216.288" style="fill: #ffa500; stroke: #ffa500"/>
     <use xlink:href="#m07e3a75005" x="78.624" y="168.768" style="fill: #ffa500; stroke: #ffa500"/>
     <use xlink:href="#m07e3a75005" x="114.336" y="206.784" style="fill: #ffa500; stroke: #ffa500"/>
     <use xlink:href="#m07e3a75005" x="150.048" y="187.776" style="fill: #ffa500; stroke: #ffa500"/>
     <use xlink:href="#m07e3a75005" x="185.76" y="178.272" style="fill: #ffa500; stroke: #ffa500"/>
     <use xlink:href="#m07e3a75005" x="221.472" y="216.288" style="fill: #ffa500; stroke: #ffa500"/>
     <use xlink:href="#m07e3a75005" x="257.184" y="225.792" style="fill: #ffa500; stroke: #ffa500"/>
     <use xlink:href="#m07e3a75005" x="292.896" y="130.752" style="fill: #ffa500; stroke: #ffa500"/>
     <use xlink:href="#m07e3a75005" x="328.608" y="178.272" style="fill: #ffa500; stroke: #ffa500"/>
    </g>
   </g>
   <g id="patch_3">
    <path d="M 7.2 273.312 
L 7.2 7.2 
" style="fill: none; stroke: #000000; stroke-width: 0.8; stroke-linejoin: miter; stroke-linecap: square"/>
   </g>
   <g id="patch_4">
    <path d="M 364.32 273.312 
L 364.32 7.2 
" style="fill: none; stroke: #000000; stroke-width: 0.8; stroke-linejoin: miter; stroke-linecap: square"/>
   </g>
   <g id="patch_5">
    <path d="M 7.2 273.312 
L 364.32 273.312 
" style="fill: none; stroke: #000000; stroke-width: 0.8; stroke-linejoin: miter; stroke-linecap: square"/>
   </g>
   <g id="patch_6">
    <path d="M 7.2 7.2 
L 364.32 7.2 
" style="fill: none; stroke: #000000; stroke-width: 0.8; stroke-linejoin: miter; stroke-linecap: square"/>
   </g>
  </g>
 </g>
 <defs>
  <clipPath id="pe5d87f5946">
   <rect x="7.2" y="7.2" width="357.12" height="266.112"/>
  </clipPath>
 </defs>
</svg>
