<?xml version="1.0" encoding="utf-8" standalone="no"?>
<!DOCTYPE svg PUBLIC "-//W3C//DTD SVG 1.1//EN"
  "http://www.w3.org/Graphics/SVG/1.1/DTD/svg11.dtd">
<svg xmlns:xlink="http://www.w3.org/1999/xlink" width="371.52pt" height="280.512pt" viewBox="0 0 371.52 280.512" xmlns="http://www.w3.org/2000/svg" version="1.1">
 <metadata>
  <rdf:RDF xmlns:dc="http://purl.org/dc/elements/1.1/" xmlns:cc="http://creativecommons.org/ns#" xmlns:rdf="http://www.w3.org/1999/02/22-rdf-syntax-ns#">
   <cc:Work>
    <dc:type rdf:resource="http://purl.org/dc/dcmitype/StillImage"/>
    <dc:date>2024-06-26T22:44:19.300500</dc:date>
    <dc:format>image/svg+xml</dc:format>
    <dc:creator>
     <cc:Agent>
      <dc:title>Matplotlib v3.9.0, https://matplotlib.org/</dc:title>
     </cc:Agent>
    </dc:creator>
   </cc:Work>
  </rdf:RDF>
 </metadata>
 <defs>
  <style type="text/css">*{stroke-linejoin: round; stroke-linecap: butt}</style>
 </defs>
 <g id="figure_1">
  <g id="patch_1">
   <path d="M 0 280.512 
L 371.52 280.512 
L 371.52 0 
L 0 0 
z
" style="fill: #ffffff"/>
  </g>
  <g id="axes_1">
   <g id="patch_2">
    <path d="M 7.2 273.312 
L 364.32 273.312 
L 364.32 7.2 
L 7.2 7.2 
z
" style="fill: #ffffff"/>
   </g>
   <g id="matplotlib.axis_1"/>
   <g id="matplotlib.axis_2"/>
   <g id="line2d_1">
    <path d="M 67.613694 135.128648 
L 67.971171 130.18683 
L 68.686126 124.44772 
L 69.758559 118.61139 
L 70.830991 114.138993 
L 72.260901 109.284318 
L 73.690811 105.216988 
L 75.478198 100.869076 
L 77.265586 97.107653 
L 79.41045 93.168151 
L 81.555315 89.713999 
L 83.70018 86.647853 
L 86.202523 83.473276 
L 88.704865 80.66188 
L 91.207207 78.159606 
L 94.067027 75.626699 
L 96.926847 73.398339 
L 99.786667 71.438591 
L 103.003964 69.51958 
L 106.221261 67.87174 
L 109.438559 66.468478 
L 113.013333 65.169481 
L 116.588108 64.120056 
L 120.162883 63.298915 
L 124.095135 62.637631 
L 128.027387 62.20955 
L 131.95964 61.996345 
L 136.249369 61.989774 
L 140.539099 62.200683 
L 145.186306 62.654674 
L 150.190991 63.383361 
L 155.195676 64.337658 
L 160.557838 65.584755 
L 166.277477 67.140946 
L 172.712072 69.129364 
L 179.861622 71.574814 
L 189.156036 75.003698 
L 207.744865 81.92777 
L 214.179459 84.043352 
L 219.541622 85.565528 
L 224.188829 86.647658 
L 228.478559 87.406416 
L 232.410811 87.865815 
L 235.985586 88.063296 
L 239.56036 88.031714 
L 242.777658 87.794292 
L 245.994955 87.349392 
L 249.212252 86.690582 
L 252.42955 85.814216 
L 255.646847 84.719404 
L 258.864144 83.407836 
L 262.438919 81.70121 
L 266.013694 79.740064 
L 269.588468 77.534681 
L 273.520721 74.840679 
L 277.452973 71.882006 
L 281.742703 68.372439 
L 286.38991 64.262713 
L 291.037117 59.858172 
L 296.041802 54.812336 
L 301.403964 49.087439 
L 307.123604 42.649118 
L 313.200721 35.465932 
L 319.635315 27.508738 
L 326.427387 18.750048 
L 333.576937 9.163417 
L 340.888007 -1 
L 340.888007 -1 
" clip-path="url(#pc9bdf233ca)" style="fill: none; stroke: #000000; stroke-width: 1.5; stroke-linecap: square"/>
   </g>
   <g id="line2d_2">
    <path d="M 67.613694 145.383352 
L 67.971171 150.32517 
L 68.686126 156.06428 
L 69.758559 161.90061 
L 70.830991 166.373007 
L 72.260901 171.227682 
L 73.690811 175.295012 
L 75.478198 179.642924 
L 77.265586 183.404347 
L 79.41045 187.343849 
L 81.555315 190.798001 
L 83.70018 193.864147 
L 86.202523 197.038724 
L 88.704865 199.85012 
L 91.207207 202.352394 
L 94.067027 204.885301 
L 96.926847 207.113661 
L 99.786667 209.073409 
L 103.003964 210.99242 
L 106.221261 212.64026 
L 109.438559 214.043522 
L 113.013333 215.342519 
L 116.588108 216.391944 
L 120.162883 217.213085 
L 124.095135 217.874369 
L 128.027387 218.30245 
L 131.95964 218.515655 
L 136.249369 218.522226 
L 140.539099 218.311317 
L 145.186306 217.857326 
L 150.190991 217.128639 
L 155.195676 216.174342 
L 160.557838 214.927245 
L 166.277477 213.371054 
L 172.712072 211.382636 
L 179.861622 208.937186 
L 189.156036 205.508302 
L 207.744865 198.58423 
L 214.179459 196.468648 
L 219.541622 194.946472 
L 224.188829 193.864342 
L 228.478559 193.105584 
L 232.410811 192.646185 
L 235.985586 192.448704 
L 239.56036 192.480286 
L 242.777658 192.717708 
L 245.994955 193.162608 
L 249.212252 193.821418 
L 252.42955 194.697784 
L 255.646847 195.792596 
L 258.864144 197.104164 
L 262.438919 198.81079 
L 266.013694 200.771936 
L 269.588468 202.977319 
L 273.520721 205.671321 
L 277.452973 208.629994 
L 281.742703 212.139561 
L 286.38991 216.249287 
L 291.037117 220.653828 
L 296.041802 225.699664 
L 301.403964 231.424561 
L 307.123604 237.862882 
L 313.200721 245.046068 
L 319.635315 253.003262 
L 326.427387 261.761952 
L 333.576937 271.348583 
L 340.888007 281.512 
L 340.888007 281.512 
" clip-path="url(#pc9bdf233ca)" style="fill: none; stroke: #000000; stroke-width: 1.5; stroke-linecap: square"/>
   </g>
   <g id="line2d_3">
    <defs>
     <path id="m6e01e43306" d="M 0 6 
C 1.591219 6 3.117479 5.367802 4.242641 4.242641 
C 5.367802 3.117479 6 1.591219 6 0 
C 6 -1.591219 5.367802 -3.117479 4.242641 -4.242641 
C 3.117479 -5.367802 1.591219 -6 0 -6 
C -1.591219 -6 -3.117479 -5.367802 -4.242641 -4.242641 
C -5.367802 -3.117479 -6 -1.591219 -6 0 
C -6 1.591219 -5.367802 3.117479 -4.242641 4.242641 
C -3.117479 5.367802 -1.591219 6 0 6 
z
" style="stroke: #ffa500"/>
    </defs>
    <g clip-path="url(#pc9bdf233ca)">
     <use xlink:href="#m6e01e43306" x="215.966847" y="84.57909" style="fill: #ffa500; stroke: #ffa500"/>
    </g>
   </g>
   <g id="line2d_4">
    <path d="M 7.2 140.256 
L 364.32 140.256 
" clip-path="url(#pc9bdf233ca)" style="fill: none; stroke: #000000; stroke-width: 0.5; stroke-linecap: square"/>
   </g>
   <g id="line2d_5">
    <path d="M 185.76 273.312 
L 185.76 7.2 
" clip-path="url(#pc9bdf233ca)" style="fill: none; stroke: #000000; stroke-width: 0.5; stroke-linecap: square"/>
   </g>
   <g id="patch_3">
    <path d="M 7.2 273.312 
L 7.2 7.2 
" style="fill: none; stroke: #000000; stroke-width: 0.8; stroke-linejoin: miter; stroke-linecap: square"/>
   </g>
   <g id="patch_4">
    <path d="M 364.32 273.312 
L 364.32 7.2 
" style="fill: none; stroke: #000000; stroke-width: 0.8; stroke-linejoin: miter; stroke-linecap: square"/>
   </g>
   <g id="patch_5">
    <path d="M 7.2 273.312 
L 364.32 273.312 
" style="fill: none; stroke: #000000; stroke-width: 0.8; stroke-linejoin: miter; stroke-linecap: square"/>
   </g>
   <g id="patch_6">
    <path d="M 7.2 7.2 
L 364.32 7.2 
" style="fill: none; stroke: #000000; stroke-width: 0.8; stroke-linejoin: miter; stroke-linecap: square"/>
   </g>
  </g>
 </g>
 <defs>
  <clipPath id="pc9bdf233ca">
   <rect x="7.2" y="7.2" width="357.12" height="266.112"/>
  </clipPath>
 </defs>
</svg>
